<svg t="1718177887068" class="icon" viewBox="0 0 1024 1024" version="1.1" xmlns="http://www.w3.org/2000/svg" p-id="1123" width="200" height="200"><path d="M512 155.733333a356.266667 356.266667 0 1 0 0 712.533334 356.266667 356.266667 0 0 0 0-712.533334zM100.266667 512A411.733333 411.733333 0 0 1 512 100.266667 411.733333 411.733333 0 0 1 923.733333 512 411.733333 411.733333 0 0 1 512 923.733333 411.733333 411.733333 0 0 1 100.266667 512z m617.813333-206.08a27.733333 27.733333 0 0 1 5.973333 30.336l-110.08 262.826667a27.733333 27.733333 0 0 1-14.890666 14.890666l-262.826667 110.08a27.733333 27.733333 0 0 1-36.266667-36.266666l110.08-262.869334a27.733333 27.733333 0 0 1 14.848-14.890666l262.826667-110.08a27.733333 27.733333 0 0 1 30.293333 5.973333z m-261.248 150.912l-79.573333 189.866667 189.909333-79.530667 79.573333-189.866667-189.909333 79.530667zM512 554.666667a42.666667 42.666667 0 1 0 0-85.333334 42.666667 42.666667 0 0 0 0 85.333334z" fill="#262D3D" p-id="1124"></path></svg>