<?xml version="1.0" standalone="no"?><!DOCTYPE svg PUBLIC "-//W3C//DTD SVG 1.1//EN" "http://www.w3.org/Graphics/SVG/1.1/DTD/svg11.dtd"><svg class="icon" width="200px" height="200.00px" viewBox="0 0 1024 1024" version="1.1" xmlns="http://www.w3.org/2000/svg"><path fill="#dbdbdb" d="M625.714286 666.857143q9.142857 9.142857 0 17.714286-35.428571 35.428571-113.714286 35.428571t-113.714286-35.428571q-9.142857-8.571429 0-17.714286 3.428571-3.428571 8.571429-3.428571t8.571429 3.428571q27.428571 28 96.571429 28 68.571429 0 96.571429-28 3.428571-3.428571 8.571429-3.428571t8.571429 3.428571zm-175.428571-103.428571q0 21.142857-14.857143 36t-36 14.857143-36.285714-14.857143-15.142857-36q0-21.714286 15.142857-36.571429t36.285714-14.857143 36 15.142857 14.857143 36.285714zm225.714286 0q0 21.142857-15.142857 36t-36.285714 14.857143-36-14.857143-14.857143-36 14.857143-36.285714 36-15.142857 36.285714 14.857143 15.142857 36.571429zm143.428571-68.571429q0-28-20-48t-48.571429-20-49.142857 20.571429q-74.285714-51.428571-177.714286-54.857143l36-161.714286 114.285714 25.714286q0 21.142857 14.857143 36t36 14.857143 36.285714-15.142857 15.142857-36.285714-15.142857-36.285714-36.285714-15.142857q-30.857143 0-45.714286 28.571429l-126.285714-28q-10.857143-2.857143-14.285714 9.142857l-39.428571 178.285714q-102.857143 4-176.571429 55.428571-20-21.142857-49.714286-21.142857-28.571429 0-48.571429 20t-20 48q0 20 10.571429 36.571429t28.285714 25.142857q-3.428571 15.428571-3.428571 32 0 81.142857 80 138.857143t192.571429 57.714286q113.142857 0 193.142857-57.714286t80-138.857143q0-18.285714-4-32.571429 17.142857-8.571429 27.428571-24.857143t10.285714-36.285714zm204.571429 17.142857q0 104-40.571429 198.857143t-109.142857 163.428571-163.428571 109.142857-198.857143 40.571429-198.857143-40.571429-163.428571-109.142857-109.142857-163.428571-40.571429-198.857143 40.571429-198.857143 109.142857-163.428571 163.428571-109.142857 198.857143-40.571429 198.857143 40.571429 163.428571 109.142857 109.142857 163.428571 40.571429 198.857143z" /></svg>