<?xml version="1.0" standalone="no"?><!DOCTYPE svg PUBLIC "-//W3C//DTD SVG 1.1//EN" "http://www.w3.org/Graphics/SVG/1.1/DTD/svg11.dtd"><svg class="icon" width="200px" height="200.00px" viewBox="0 0 1024 1024" version="1.1" xmlns="http://www.w3.org/2000/svg"><path fill="#dbdbdb" d="M584.32 539.52c0-166.656-59.456-242.56-90.88-271.36a8.96 8.96 0 0 0-14.848 7.872c6.08 94.208-112.768 117.76-112.768 265.216v0.832c0 89.856 68.16 163.2 152.064 163.2s152.128-73.344 152.128-163.2v-0.832c0-41.92-15.744-82.048-31.488-111.68-3.52-6.144-12.224-3.52-11.392 1.728 28.864 127.36-42.816 205.888-42.816 108.16z"  /><path fill="#dbdbdb" d="M403.392 891.072a16.128 16.128 0 0 1-10.496-4.352L3.904 498.496c-5.184-5.248-5.184-14.848 0-20.928l410.88-410.048A18.368 18.368 0 0 1 424.32 64h118.016c6.976 0 11.328 4.352 13.056 8.704a14.08 14.08 0 0 1-3.456 15.744L166.528 474.048a19.456 19.456 0 0 0 0 27.904l305.024 305.344c5.248 5.248 5.248 14.848 0 20.992l-58.56 59.328a18.368 18.368 0 0 1-9.6 3.456z m77.824 68.032a14.08 14.08 0 0 1-9.6-24.448l386.304-385.6a20.544 20.544 0 0 0 6.144-13.952 17.344 17.344 0 0 0-6.144-13.952l-305.92-305.344c-5.248-5.248-5.248-14.848 0-20.928l59.456-59.328a14.464 14.464 0 0 1 10.432-4.352c4.416 0 7.04 2.56 9.6 5.184l388.16 388.288c2.56 2.56 4.352 6.08 4.352 10.432a14.4 14.4 0 0 1-4.352 10.496l-410.88 410.048A14.464 14.464 0 0 1 598.4 960h-117.12v-0.896z"  /></svg>